<svg preserveAspectRatio="none" width="100%" height="100%" overflow="visible" style="display: block;" viewBox="0 0 9 9" fill="none" xmlns="http://www.w3.org/2000/svg">
<g id="material-symbols:asterisk-rounded">
<path id="Vector" d="M4.5 7.875C4.39375 7.875 4.30475 7.839 4.233 7.767C4.16125 7.695 4.12525 7.606 4.125 7.5V5.4L2.64375 6.89063C2.56875 6.96563 2.47975 7.00312 2.37675 7.00312C2.27375 7.00312 2.18462 6.96563 2.10937 6.89063C2.03412 6.81563 1.99662 6.72663 1.99687 6.62363C1.99712 6.52063 2.03462 6.4315 2.10937 6.35625L3.6 4.875H1.5C1.39375 4.875 1.30475 4.839 1.233 4.767C1.16125 4.695 1.12525 4.606 1.125 4.5C1.12475 4.394 1.16075 4.305 1.233 4.233C1.30525 4.161 1.39425 4.125 1.5 4.125H3.6L2.10937 2.64375C2.03437 2.56875 1.99687 2.47975 1.99687 2.37675C1.99687 2.27375 2.03437 2.18462 2.10937 2.10937C2.18437 2.03412 2.2735 1.99662 2.37675 1.99687C2.48 1.99712 2.569 2.03462 2.64375 2.10937L4.125 3.6V1.5C4.125 1.39375 4.161 1.30475 4.233 1.233C4.305 1.16125 4.394 1.12525 4.5 1.125C4.606 1.12475 4.69513 1.16075 4.76738 1.233C4.83963 1.30525 4.8755 1.39425 4.875 1.5V3.6L6.35625 2.10937C6.43125 2.03437 6.52038 1.99687 6.62363 1.99687C6.72688 1.99687 6.81588 2.03437 6.89063 2.10937C6.96538 2.18437 7.00287 2.2735 7.00312 2.37675C7.00337 2.48 6.96588 2.569 6.89063 2.64375L5.4 4.125H7.5C7.60625 4.125 7.69537 4.161 7.76737 4.233C7.83937 4.305 7.87525 4.394 7.875 4.5C7.87475 4.606 7.83875 4.69513 7.767 4.76738C7.69525 4.83963 7.60625 4.8755 7.5 4.875H5.4L6.89063 6.35625C6.96563 6.43125 7.00312 6.52038 7.00312 6.62363C7.00312 6.72688 6.96563 6.81588 6.89063 6.89063C6.81563 6.96538 6.72663 7.00287 6.62363 7.00312C6.52063 7.00337 6.4315 6.96588 6.35625 6.89063L4.875 5.4V7.5C4.875 7.60625 4.839 7.69537 4.767 7.76737C4.695 7.83937 4.606 7.87525 4.5 7.875Z" fill="var(--fill-0, #AD2323)"/>
</g>
</svg>
