<svg preserveAspectRatio="none" width="100%" height="100%" overflow="visible" style="display: block;" viewBox="0 0 20 20" fill="none" xmlns="http://www.w3.org/2000/svg">
<g id="check-circle-solid 1" clip-path="url(#clip0_0_16)">
<path id="Vector" d="M19.6876 10.0001C19.6876 15.3503 15.3504 19.6876 10.0001 19.6876C4.64982 19.6876 0.312597 15.3503 0.312597 10.0001C0.312597 4.64978 4.64982 0.312549 10.0001 0.312549C15.3504 0.312549 19.6876 4.64978 19.6876 10.0001ZM8.87955 15.1295L16.0671 7.942C16.3111 7.69794 16.3111 7.3022 16.0671 7.05814L15.1832 6.17427C14.9391 5.93017 14.5434 5.93017 14.2993 6.17427L8.4376 12.0359L5.70092 9.29923C5.45685 9.05517 5.06111 9.05517 4.81701 9.29923L3.93314 10.1831C3.68908 10.4272 3.68908 10.8229 3.93314 11.067L7.99564 15.1295C8.23975 15.3736 8.63545 15.3736 8.87955 15.1295V15.1295Z" fill="var(--fill-0, #55B938)"/>
</g>
<defs>
<clipPath id="clip0_0_16">
<rect width="20" height="20" fill="white"/>
</clipPath>
</defs>
</svg>
