<svg preserveAspectRatio="none" width="100%" height="100%" overflow="visible" style="display: block;" viewBox="0 0 19 18" fill="none" xmlns="http://www.w3.org/2000/svg">
<g id="Group">
<path id="Vector" d="M8 4L10 7L8 10H5L3 7L5 4H8Z" stroke="var(--stroke-0, #404446)" stroke-width="2" stroke-linecap="round" stroke-linejoin="round"/>
<path id="Vector_2" d="M13 7L15 4L13 1H10L8 4L10 7M13 7H10M13 7L15 10M10 7L8 10L10 13M13 13L15 16M13 13L15 10M13 13H10M2 1L5 4M5 10L3 12M10 13L8 15M3 7H1M15 10H18" stroke="var(--stroke-0, #404446)" stroke-width="2" stroke-linecap="round" stroke-linejoin="round"/>
<path id="Vector_3" d="M6 18C6.55228 18 7 17.5523 7 17C7 16.4477 6.55228 16 6 16C5.44772 16 5 16.4477 5 17C5 17.5523 5.44772 18 6 18Z" fill="var(--fill-0, #404446)"/>
<path id="Vector_4" d="M1 15C1.55228 15 2 14.5523 2 14C2 13.4477 1.55228 13 1 13C0.447715 13 0 13.4477 0 14C0 14.5523 0.447715 15 1 15Z" fill="var(--fill-0, #404446)"/>
<path id="Vector_5" d="M18 5C18.5523 5 19 4.55228 19 4C19 3.44772 18.5523 3 18 3C17.4477 3 17 3.44772 17 4C17 4.55228 17.4477 5 18 5Z" fill="var(--fill-0, #404446)"/>
</g>
</svg>
