<svg preserveAspectRatio="none" width="100%" height="100%" overflow="visible" style="display: block;" viewBox="0 0 16 16" fill="none" xmlns="http://www.w3.org/2000/svg">
<g id="zondicons:close-solid" clip-path="url(#clip0_0_101)">
<path id="Vector" d="M2.344 13.656C1.57992 12.918 0.970461 12.0353 0.551189 11.0592C0.131917 10.0832 -0.0887731 9.03344 -0.0980036 7.97121C-0.107234 6.90898 0.0951794 5.85554 0.497427 4.87237C0.899674 3.8892 1.4937 2.99598 2.24484 2.24484C2.99598 1.4937 3.8892 0.899674 4.87237 0.497427C5.85554 0.0951794 6.90898 -0.107234 7.97121 -0.0980036C9.03344 -0.0887731 10.0832 0.131917 11.0592 0.551189C12.0353 0.970461 12.918 1.57992 13.656 2.344C15.1133 3.85282 15.9196 5.87364 15.9014 7.97121C15.8832 10.0688 15.0418 12.0753 13.5585 13.5585C12.0753 15.0418 10.0688 15.8832 7.97121 15.9014C5.87364 15.9196 3.85282 15.1133 2.344 13.656ZM9.12 8L11.384 5.736L10.256 4.608L8 6.872L5.736 4.608L4.608 5.736L6.872 8L4.608 10.264L5.736 11.392L8 9.128L10.264 11.392L11.392 10.264L9.128 8H9.12Z" fill="var(--fill-0, #575757)"/>
</g>
<defs>
<clipPath id="clip0_0_101">
<rect width="16" height="16" fill="white"/>
</clipPath>
</defs>
</svg>
