<svg preserveAspectRatio="none" width="100%" height="100%" overflow="visible" style="display: block;" viewBox="0 0 12 12" fill="none" xmlns="http://www.w3.org/2000/svg">
<g id="material-symbols:close-rounded">
<path id="Vector" d="M6 6.7L3.55 9.15C3.45833 9.24167 3.34167 9.2875 3.2 9.2875C3.05833 9.2875 2.94167 9.24167 2.85 9.15C2.75833 9.05833 2.7125 8.94167 2.7125 8.8C2.7125 8.65833 2.75833 8.54167 2.85 8.45L5.3 6L2.85 3.55C2.75833 3.45833 2.7125 3.34167 2.7125 3.2C2.7125 3.05833 2.75833 2.94167 2.85 2.85C2.94167 2.75833 3.05833 2.7125 3.2 2.7125C3.34167 2.7125 3.45833 2.75833 3.55 2.85L6 5.3L8.45 2.85C8.54167 2.75833 8.65833 2.7125 8.8 2.7125C8.94167 2.7125 9.05833 2.75833 9.15 2.85C9.24167 2.94167 9.2875 3.05833 9.2875 3.2C9.2875 3.34167 9.24167 3.45833 9.15 3.55L6.7 6L9.15 8.45C9.24167 8.54167 9.2875 8.65833 9.2875 8.8C9.2875 8.94167 9.24167 9.05833 9.15 9.15C9.05833 9.24167 8.94167 9.2875 8.8 9.2875C8.65833 9.2875 8.54167 9.24167 8.45 9.15L6 6.7Z" fill="var(--fill-0, #404446)" fill-opacity="0.4"/>
</g>
</svg>
