<svg preserveAspectRatio="none" width="100%" height="100%" overflow="visible" style="display: block;" viewBox="0 0 20 20" fill="none" xmlns="http://www.w3.org/2000/svg">
<g id="ic:round-download">
<path id="Vector" d="M13.8283 7.5H12.5033V3.33333C12.5033 2.875 12.1283 2.5 11.6699 2.5H8.33659C7.87826 2.5 7.50326 2.875 7.50326 3.33333V7.5H6.17826C5.43659 7.5 5.06159 8.4 5.58659 8.925L9.41159 12.75C9.73659 13.075 10.2616 13.075 10.5866 12.75L14.4116 8.925C14.9366 8.4 14.5699 7.5 13.8283 7.5ZM4.16992 15.8333C4.16992 16.2917 4.54492 16.6667 5.00326 16.6667H15.0033C15.4616 16.6667 15.8366 16.2917 15.8366 15.8333C15.8366 15.375 15.4616 15 15.0033 15H5.00326C4.54492 15 4.16992 15.375 4.16992 15.8333Z" fill="var(--fill-0, #444D4F)" fill-opacity="0.47"/>
</g>
</svg>
