<svg preserveAspectRatio="none" width="100%" height="100%" overflow="visible" style="display: block;" viewBox="0 0 15 19" fill="none" xmlns="http://www.w3.org/2000/svg">
<g id="Vector">
<path fill-rule="evenodd" clip-rule="evenodd" d="M2.5 1C2.10218 1 1.72064 1.15804 1.43934 1.43934C1.15804 1.72064 1 2.10218 1 2.5V16.5C1 16.8978 1.15804 17.2794 1.43934 17.5607C1.72064 17.842 2.10218 18 2.5 18H12.5C12.8978 18 13.2794 17.842 13.5607 17.5607C13.842 17.2794 14 16.8978 14 16.5V6.91411V6.91411C13.9999 6.78155 13.9473 6.65433 13.8535 6.56061L8.43945 1.14655C8.34573 1.0528 8.21856 1.00006 8.086 1V1H2.5ZM0.732233 0.732233C1.20107 0.263392 1.83696 0 2.5 0H8.086C8.48377 8.49664e-05 8.86532 0.158156 9.14655 0.439447M9.14655 0.439447L14.5605 5.85339V5.85339C14.8418 6.13463 14.9999 6.51613 15 6.91389V16.5C15 17.163 14.7366 17.7989 14.2678 18.2678C13.7989 18.7366 13.163 19 12.5 19H2.5C1.83696 19 1.20107 18.7366 0.732233 18.2678C0.263392 17.7989 0 17.163 0 16.5V2.5C0 1.83696 0.263392 1.20107 0.732233 0.732233" fill="var(--fill-0, #E72A2A)"/>
<path d="M5.65846 5.50247C5.1709 5.49394 4.75005 5.97889 4.85319 6.46337C4.92257 7.20371 5.39993 7.80447 5.77245 8.4158C5.81432 8.64338 5.69426 8.86506 5.68624 9.09107C5.44336 10.4178 5.07284 11.7376 4.5028 12.9553C3.79745 13.28 2.99877 13.6007 2.5862 14.3006C2.32436 14.7861 2.69304 15.4415 3.23422 15.4927C3.7363 15.5614 4.10895 15.1311 4.38342 14.7706C4.66999 14.3829 4.85855 13.9211 5.09699 13.5044C6.54012 12.9232 8.058 12.5171 9.60776 12.3629C10.2343 12.8114 10.8983 13.3404 11.7017 13.3724C12.1687 13.3654 12.5466 12.9121 12.4953 12.4516C12.4653 12.0324 12.0928 11.7384 11.7069 11.6597C11.0847 11.4722 10.4181 11.5748 9.78507 11.5794C8.56691 10.606 7.4423 9.48613 6.55661 8.20462C6.62235 7.4256 6.75435 6.56387 6.34869 5.85515C6.19469 5.63164 5.93364 5.4785 5.65846 5.50247ZM5.68168 6.20995C5.81883 6.23637 5.82797 6.44067 5.86638 6.54996C5.90252 6.77263 5.89857 6.99984 5.89593 7.2247C5.73258 6.91939 5.5204 6.60045 5.5582 6.23846C5.60126 6.23678 5.63938 6.21495 5.68168 6.20995ZM6.43735 9.24788C7.16337 10.1505 7.96983 10.9818 8.84998 11.7357C7.68952 11.9127 6.53658 12.2091 5.43261 12.6089C5.85606 11.5022 6.17847 10.3588 6.39091 9.19192C6.40639 9.21057 6.42187 9.22923 6.43735 9.24788ZM10.9661 12.2827C11.2476 12.3098 11.5725 12.2935 11.7977 12.4875C11.8189 12.6626 11.6047 12.6882 11.4906 12.6248C11.2526 12.5453 11.0172 12.4454 10.8151 12.2932C10.8655 12.2901 10.9156 12.2836 10.9661 12.2827ZM3.93183 14.1242C3.79797 14.3732 3.60314 14.6079 3.39991 14.7842C3.33229 14.8937 3.14672 14.6912 3.23211 14.6057C3.40842 14.3298 3.71622 14.1835 3.98882 14.0186C3.96983 14.0538 3.95083 14.089 3.93183 14.1242Z" fill="var(--fill-0, #E72A2A)"/>
</g>
</svg>
