<svg preserveAspectRatio="none" width="100%" height="100%" overflow="visible" style="display: block;" viewBox="0 0 15 19" fill="none" xmlns="http://www.w3.org/2000/svg">
<g id="Vector">
<path fill-rule="evenodd" clip-rule="evenodd" d="M2.5 1C2.10218 1 1.72064 1.15804 1.43934 1.43934C1.15804 1.72064 1 2.10218 1 2.5V16.5C1 16.8978 1.15804 17.2794 1.43934 17.5607C1.72064 17.842 2.10218 18 2.5 18H12.5C12.8978 18 13.2794 17.842 13.5607 17.5607C13.842 17.2794 14 16.8978 14 16.5V6.91411V6.91411C13.9999 6.78155 13.9473 6.65433 13.8535 6.56061L8.43945 1.14655C8.34573 1.0528 8.21856 1.00006 8.086 1V1H2.5ZM0.732233 0.732233C1.20107 0.263392 1.83696 0 2.5 0H8.086C8.48377 8.49664e-05 8.86532 0.158156 9.14655 0.439447M9.14655 0.439447L14.5605 5.85339V5.85339C14.8418 6.13463 14.9999 6.51613 15 6.91389V16.5C15 17.163 14.7366 17.7989 14.2678 18.2678C13.7989 18.7366 13.163 19 12.5 19H2.5C1.83696 19 1.20107 18.7366 0.732233 18.2678C0.263392 17.7989 0 17.163 0 16.5V2.5C0 1.83696 0.263392 1.20107 0.732233 0.732233" fill="var(--fill-0, #3F82EF)"/>
<path fill-rule="evenodd" clip-rule="evenodd" d="M3.5 8C3.5 7.72386 3.72386 7.5 4 7.5H11C11.2761 7.5 11.5 7.72386 11.5 8C11.5 8.27614 11.2761 8.5 11 8.5H4C3.72386 8.5 3.5 8.27614 3.5 8ZM3.5 11C3.5 10.7239 3.72386 10.5 4 10.5H9C9.27614 10.5 9.5 10.7239 9.5 11C9.5 11.2761 9.27614 11.5 9 11.5H4C3.72386 11.5 3.5 11.2761 3.5 11ZM3.5 14C3.5 13.7239 3.72386 13.5 4 13.5H7C7.27614 13.5 7.5 13.7239 7.5 14C7.5 14.2761 7.27614 14.5 7 14.5H4C3.72386 14.5 3.5 14.2761 3.5 14Z" fill="var(--fill-0, #3F82EF)"/>
</g>
</svg>
