<svg preserveAspectRatio="none" width="100%" height="100%" overflow="visible" style="display: block;" viewBox="0 0 15 19" fill="none" xmlns="http://www.w3.org/2000/svg">
<g id="Vector">
<path fill-rule="evenodd" clip-rule="evenodd" d="M2.5 1C2.10218 1 1.72064 1.15804 1.43934 1.43934C1.15804 1.72064 1 2.10218 1 2.5V16.5C1 16.8978 1.15804 17.2794 1.43934 17.5607C1.72064 17.842 2.10218 18 2.5 18H12.5C12.8978 18 13.2794 17.842 13.5607 17.5607C13.842 17.2794 14 16.8978 14 16.5V6.91411V6.91411C13.9999 6.78155 13.9473 6.65433 13.8535 6.56061L8.43945 1.14655C8.34573 1.0528 8.21856 1.00006 8.086 1V1H2.5ZM0.732233 0.732233C1.20107 0.263392 1.83696 0 2.5 0H8.086C8.48377 8.49664e-05 8.86532 0.158156 9.14655 0.439447M9.14655 0.439447L14.5605 5.85339V5.85339C14.8418 6.13463 14.9999 6.51613 15 6.91389V16.5C15 17.163 14.7366 17.7989 14.2678 18.2678C13.7989 18.7366 13.163 19 12.5 19H2.5C1.83696 19 1.20107 18.7366 0.732233 18.2678C0.263392 17.7989 0 17.163 0 16.5V2.5C0 1.83696 0.263392 1.20107 0.732233 0.732233" fill="var(--fill-0, #3F82EF)"/>
<path fill-rule="evenodd" clip-rule="evenodd" d="M4.4395 10.4392V10.4392L1 13.8787V14.6716C1 14.9477 0.776142 15.1716 0.5 15.1716C0.223858 15.1716 0 14.9477 0 14.6716V13.6716C0 13.539 0.0526784 13.4118 0.146447 13.318L3.73245 9.73202C4.20127 9.26334 4.83709 9 5.5 9C6.16291 9 6.79868 9.26329 7.2675 9.73197L9.5 11.9645L10.7324 10.732C11.2013 10.2633 11.8371 10 12.5 10C13.1629 10 13.7987 10.2633 14.2675 10.732L14.8536 11.318C14.9473 11.4118 15 11.539 15 11.6716V12.6716C15 12.9477 14.7761 13.1716 14.5 13.1716C14.2239 13.1716 14 12.9477 14 12.6716V11.8787L13.5605 11.4392V11.4392C13.2792 11.158 12.8977 11 12.5 11C12.1023 11 11.7208 11.158 11.4396 11.4391V11.4391L10.2071 12.6716L11.8536 14.318C12.0488 14.5133 12.0488 14.8299 11.8536 15.0251C11.6583 15.2204 11.3417 15.2204 11.1464 15.0251L6.5605 10.4392V10.4392C6.27921 10.158 5.89772 10 5.5 10C5.10228 10 4.72079 10.158 4.4395 10.4392Z" fill="var(--fill-0, #3F82EF)"/>
<path fill-rule="evenodd" clip-rule="evenodd" d="M9 7.5C9 7.22386 9.22386 7 9.5 7H9.51C9.78614 7 10.01 7.22386 10.01 7.5C10.01 7.77614 9.78614 8 9.51 8H9.5C9.22386 8 9 7.77614 9 7.5Z" fill="var(--fill-0, #3F82EF)"/>
</g>
</svg>
