<svg preserveAspectRatio="none" width="100%" height="100%" overflow="visible" style="display: block;" viewBox="0 0 15 19" fill="none" xmlns="http://www.w3.org/2000/svg">
<g id="Vector">
<path fill-rule="evenodd" clip-rule="evenodd" d="M2.5 1C2.10218 1 1.72064 1.15804 1.43934 1.43934C1.15804 1.72064 1 2.10218 1 2.5V16.5C1 16.8978 1.15804 17.2794 1.43934 17.5607C1.72064 17.842 2.10218 18 2.5 18H12.5C12.8978 18 13.2794 17.842 13.5607 17.5607C13.842 17.2794 14 16.8978 14 16.5V6.91411V6.91411C13.9999 6.78155 13.9473 6.65433 13.8535 6.56061L8.43945 1.14655C8.34573 1.0528 8.21856 1.00006 8.086 1V1H2.5ZM0.732233 0.732233C1.20107 0.263392 1.83696 0 2.5 0H8.086C8.48377 8.49664e-05 8.86532 0.158156 9.14655 0.439447M9.14655 0.439447L14.5605 5.85339V5.85339C14.8418 6.13463 14.9999 6.51613 15 6.91389V16.5C15 17.163 14.7366 17.7989 14.2678 18.2678C13.7989 18.7366 13.163 19 12.5 19H2.5C1.83696 19 1.20107 18.7366 0.732233 18.2678C0.263392 17.7989 0 17.163 0 16.5V2.5C0 1.83696 0.263392 1.20107 0.732233 0.732233" fill="var(--fill-0, #4A5568)"/>
<path fill-rule="evenodd" clip-rule="evenodd" d="M5 0.5C5.27614 0.5 5.5 0.723858 5.5 1V11C5.5 11.2761 5.27614 11.5 5 11.5C4.72386 11.5 4.5 11.2761 4.5 11V1C4.5 0.723858 4.72386 0.5 5 0.5Z" fill="var(--fill-0, #4A5568)"/>
<path fill-rule="evenodd" clip-rule="evenodd" d="M2.5 3C2.5 2.72386 2.72386 2.5 3 2.5H5C5.27614 2.5 5.5 2.72386 5.5 3C5.5 3.27614 5.27614 3.5 5 3.5H3C2.72386 3.5 2.5 3.27614 2.5 3Z" fill="var(--fill-0, #4A5568)"/>
<path fill-rule="evenodd" clip-rule="evenodd" d="M4.5 5C4.5 4.72386 4.72386 4.5 5 4.5H7C7.27614 4.5 7.5 4.72386 7.5 5C7.5 5.27614 7.27614 5.5 7 5.5H5C4.72386 5.5 4.5 5.27614 4.5 5Z" fill="var(--fill-0, #4A5568)"/>
<path fill-rule="evenodd" clip-rule="evenodd" d="M2.5 7C2.5 6.72386 2.72386 6.5 3 6.5H5C5.27614 6.5 5.5 6.72386 5.5 7C5.5 7.27614 5.27614 7.5 5 7.5H3C2.72386 7.5 2.5 7.27614 2.5 7Z" fill="var(--fill-0, #4A5568)"/>
<path fill-rule="evenodd" clip-rule="evenodd" d="M4.5 9C4.5 8.72386 4.72386 8.5 5 8.5H7C7.27614 8.5 7.5 8.72386 7.5 9C7.5 9.27614 7.27614 9.5 7 9.5H5C4.72386 9.5 4.5 9.27614 4.5 9Z" fill="var(--fill-0, #4A5568)"/>
<path fill-rule="evenodd" clip-rule="evenodd" d="M5.4 10.7L5 11L4.6 10.7C4.69442 10.5741 4.84262 10.5 4.99999 10.5C5.15737 10.5 5.30557 10.5741 5.4 10.7ZM5.00001 11.8858C4.91733 12.0161 4.83091 12.1589 4.7496 12.3053C4.59991 12.5748 4.4822 12.8302 4.42772 13.03C4.40785 13.1028 4.40041 13.1542 4.3985 13.1869C4.53763 13.2998 4.75269 13.375 5 13.375C5.24731 13.375 5.46239 13.2998 5.60152 13.1868C5.59962 13.1542 5.59218 13.1028 5.57231 13.03C5.51783 12.8302 5.40012 12.5748 5.25043 12.3053C5.16911 12.1589 5.08269 12.0161 5.00001 11.8858ZM6.59948 13.2823C6.58728 13.4654 6.52648 13.6806 6.35356 13.8536C5.98856 14.2186 5.47423 14.375 4.99999 14.375C4.52575 14.375 4.01144 14.2185 3.64646 13.8536C3.47353 13.6806 3.41275 13.4654 3.40054 13.2823C3.38862 13.1034 3.41993 12.9246 3.46295 12.7669C3.54909 12.451 3.71262 12.1128 3.87543 11.8197C4.04148 11.5208 4.22224 11.2417 4.35998 11.0392C4.42921 10.9373 4.48841 10.8536 4.53062 10.795C4.55174 10.7656 4.56865 10.7424 4.58049 10.7263L4.59436 10.7076L4.59825 10.7023L4.6 10.7C4.6 10.7 4.6 10.7 5 11C5.4 10.7 5.4 10.7 5.4 10.7L5.40175 10.7023L5.40563 10.7076L5.4195 10.7263C5.43134 10.7424 5.44826 10.7656 5.46938 10.7949C5.51159 10.8536 5.57079 10.9373 5.64003 11.0392C5.77777 11.2417 5.95853 11.5208 6.12458 11.8197C6.2874 12.1127 6.45093 12.451 6.53708 12.7669C6.5801 12.9246 6.61141 13.1034 6.59948 13.2823Z" fill="var(--fill-0, #4A5568)"/>
</g>
</svg>
