<svg preserveAspectRatio="none" width="100%" height="100%" overflow="visible" style="display: block;" viewBox="0 0 24 24" fill="none" xmlns="http://www.w3.org/2000/svg">
<g id="fluent:math-formula-24-filled">
<path id="Vector" d="M12.187 4.14C11.223 3.417 9.842 4.07 9.789 5.274L9.712 7H12C12.2652 7 12.5196 7.10536 12.7071 7.29289C12.8946 7.48043 13 7.73478 13 8C13 8.26522 12.8946 8.51957 12.7071 8.70711C12.5196 8.89464 12.2652 9 12 9H9.623L9.23 17.85C9.1 20.781 5.637 22.26 3.429 20.329L3.342 20.253C3.24311 20.1665 3.16223 20.0614 3.10396 19.9437C3.0457 19.8259 3.01119 19.6979 3.00242 19.5668C2.99364 19.4358 3.01077 19.3042 3.05282 19.1798C3.09487 19.0553 3.16102 18.9404 3.2475 18.8415C3.33398 18.7426 3.43908 18.6617 3.55682 18.6035C3.67455 18.5452 3.80261 18.5107 3.93368 18.5019C4.06475 18.4931 4.19626 18.5103 4.32071 18.5523C4.44516 18.5944 4.56011 18.6605 4.659 18.747L4.746 18.823C5.692 19.652 7.176 19.017 7.232 17.761L7.622 9H6C5.73478 9 5.48043 8.89464 5.29289 8.70711C5.10536 8.51957 5 8.26522 5 8C5 7.73478 5.10536 7.48043 5.29289 7.29289C5.48043 7.10536 5.73478 7 6 7H7.71L7.79 5.185C7.916 2.375 11.137 0.853 13.387 2.54L13.6 2.7C13.7051 2.77879 13.7936 2.87751 13.8605 2.99051C13.9274 3.10351 13.9714 3.22858 13.9899 3.35858C14.0085 3.48858 14.0013 3.62097 13.9687 3.74818C13.9361 3.87539 13.8788 3.99494 13.8 4.1C13.7212 4.20506 13.6225 4.29357 13.5095 4.36047C13.3965 4.42738 13.2714 4.47138 13.1414 4.48995C13.0114 4.50852 12.879 4.50131 12.7518 4.46871C12.6246 4.43612 12.5051 4.37879 12.4 4.3L12.187 4.14ZM13.082 13.046C13.1418 13.0131 13.2078 12.9929 13.2757 12.9864C13.3437 12.98 13.4122 12.9876 13.4771 13.0087C13.5421 13.0297 13.602 13.0639 13.6532 13.109C13.7044 13.1541 13.7459 13.2093 13.775 13.271L14.588 14.998L11.293 18.293C11.1108 18.4816 11.01 18.7342 11.0123 18.9964C11.0146 19.2586 11.1198 19.5094 11.3052 19.6948C11.4906 19.8802 11.7414 19.9854 12.0036 19.9877C12.2658 19.99 12.5184 19.8892 12.707 19.707L15.493 16.921L16.273 18.578C16.4352 18.9227 16.6741 19.2258 16.9713 19.4641C17.2685 19.7024 17.6163 19.8696 17.988 19.953C18.3598 20.0363 18.7457 20.0336 19.1162 19.9451C19.4867 19.8565 19.8321 19.6844 20.126 19.442L20.636 19.022C20.7399 18.9393 20.8262 18.8368 20.89 18.7204C20.9539 18.604 20.9939 18.476 21.0077 18.344C21.0216 18.2119 21.009 18.0785 20.9707 17.9513C20.9324 17.8242 20.8692 17.706 20.7848 17.6035C20.7003 17.5011 20.5963 17.4165 20.4789 17.3547C20.3614 17.2929 20.2328 17.255 20.1005 17.2435C19.9682 17.2319 19.835 17.2467 19.7086 17.2872C19.5821 17.3276 19.465 17.3928 19.364 17.479L18.854 17.899C18.7953 17.9476 18.7262 17.9821 18.6521 17.9999C18.578 18.0177 18.5008 18.0184 18.4264 18.0018C18.352 17.9852 18.2824 17.9518 18.2229 17.9042C18.1633 17.8565 18.1155 17.7959 18.083 17.727L16.996 15.418L19.707 12.707C19.8025 12.6148 19.8787 12.5044 19.9311 12.3824C19.9835 12.2604 20.0111 12.1292 20.0123 11.9964C20.0134 11.8636 19.9881 11.7319 19.9378 11.609C19.8875 11.4861 19.8133 11.3745 19.7194 11.2806C19.6255 11.1867 19.5138 11.1125 19.391 11.0622C19.2681 11.0119 19.1364 10.9866 19.0036 10.9877C18.8708 10.9889 18.7396 11.0165 18.6176 11.0689C18.4956 11.1213 18.3852 11.1975 18.293 11.293L16.091 13.495L15.585 12.42C15.4396 12.1109 15.2323 11.8349 14.9761 11.6091C14.7199 11.3832 14.42 11.2122 14.0952 11.1067C13.7703 11.0012 13.4272 10.9634 13.0872 10.9956C12.7471 11.0278 12.4173 11.1294 12.118 11.294L11.518 11.624C11.2905 11.7544 11.1233 11.9689 11.0524 12.2213C10.9815 12.4738 11.0126 12.744 11.139 12.9737C11.2655 13.2035 11.477 13.3744 11.7282 13.4496C11.9794 13.5248 12.2501 13.4984 12.482 13.376L13.082 13.046Z" fill="var(--fill-0, #404446)"/>
</g>
</svg>
