<svg preserveAspectRatio="none" width="100%" height="100%" overflow="visible" style="display: block;" viewBox="0 0 20 20" fill="none" xmlns="http://www.w3.org/2000/svg">
<g id="ic:round-plus">
<path id="Vector" d="M15 10.8317H10.8333V14.9984C10.8333 15.2194 10.7455 15.4313 10.5893 15.5876C10.433 15.7439 10.221 15.8317 10 15.8317C9.77899 15.8317 9.56702 15.7439 9.41074 15.5876C9.25446 15.4313 9.16667 15.2194 9.16667 14.9984V10.8317H5C4.77899 10.8317 4.56702 10.7439 4.41074 10.5876C4.25446 10.4313 4.16667 10.2194 4.16667 9.99837C4.16667 9.77736 4.25446 9.5654 4.41074 9.40912C4.56702 9.25284 4.77899 9.16504 5 9.16504H9.16667V4.99837C9.16667 4.77736 9.25446 4.5654 9.41074 4.40912C9.56702 4.25284 9.77899 4.16504 10 4.16504C10.221 4.16504 10.433 4.25284 10.5893 4.40912C10.7455 4.5654 10.8333 4.77736 10.8333 4.99837V9.16504H15C15.221 9.16504 15.433 9.25284 15.5893 9.40912C15.7455 9.5654 15.8333 9.77736 15.8333 9.99837C15.8333 10.2194 15.7455 10.4313 15.5893 10.5876C15.433 10.7439 15.221 10.8317 15 10.8317Z" fill="var(--fill-0, white)"/>
</g>
</svg>
