<svg preserveAspectRatio="none" width="100%" height="100%" overflow="visible" style="display: block;" viewBox="0 0 59.0833 59.0833" fill="none" xmlns="http://www.w3.org/2000/svg">
<g id="Frame 2610663">
<path id="Vector" fill-rule="evenodd" clip-rule="evenodd" d="M15.8333 8C13.7558 8 11.7634 8.8253 10.2943 10.2943C8.8253 11.7634 8 13.7558 8 15.8333V43.25C8 45.3275 8.8253 47.32 10.2943 48.789C11.7634 50.258 13.7558 51.0833 15.8333 51.0833H43.25C45.3275 51.0833 47.32 50.258 48.789 48.789C50.258 47.32 51.0833 45.3275 51.0833 43.25V15.8333C51.0833 13.7558 50.258 11.7634 48.789 10.2943C47.32 8.8253 45.3275 8 43.25 8H15.8333ZM16.8027 41.5874L16.7988 41.5972L16.2837 42.6272H18.859C20.5823 42.6272 22.0197 41.4033 22.3487 39.7779H41.6481C42.5917 39.7768 43.4963 39.4017 44.1637 38.7347C44.8311 38.0676 45.2068 37.1632 45.2083 36.2196V21.9747C45.2073 21.0307 44.8319 20.1258 44.1644 19.4583C43.497 18.7909 42.592 18.4155 41.6481 18.4144H17.4352C16.4913 18.4155 15.5864 18.7909 14.9189 19.4583C14.2515 20.1258 13.876 21.0307 13.875 21.9747V36.2176C13.875 38.1642 15.4358 39.7446 17.3745 39.7779C17.3138 40.1441 17.2179 40.4966 17.116 40.8001C17.0311 41.055 16.933 41.3054 16.8223 41.5502L16.8027 41.5874ZM19.5718 33.3682C19.1942 33.3682 18.8321 33.2183 18.5651 32.9513C18.2981 32.6843 18.1481 32.3221 18.1481 31.9445C18.1481 31.567 18.2981 31.2048 18.5651 30.9378C18.8321 30.6708 19.1942 30.5208 19.5718 30.5208C19.9494 30.5208 20.3115 30.6708 20.5785 30.9378C20.8455 31.2048 20.9955 31.567 20.9955 31.9445C20.9955 32.3221 20.8455 32.6843 20.5785 32.9513C20.3115 33.2183 19.9494 33.3682 19.5718 33.3682ZM39.5115 33.3682C39.1339 33.3682 38.7718 33.2183 38.5048 32.9513C38.2378 32.6843 38.0878 32.3221 38.0878 31.9445C38.0878 31.567 38.2378 31.2048 38.5048 30.9378C38.7718 30.6708 39.1339 30.5208 39.5115 30.5208C39.8891 30.5208 40.2513 30.6708 40.5183 30.9378C40.7853 31.2048 40.9353 31.567 40.9353 31.9445C40.9353 32.3221 40.7853 32.6843 40.5183 32.9513C40.2513 33.2183 39.8891 33.3682 39.5115 33.3682ZM33.1019 33.237V34.0811C33.1009 34.7525 32.8628 35.4019 32.4297 35.9149C31.9966 36.4279 31.3962 36.7715 30.7345 36.8851C30.0728 36.9986 29.3922 36.8749 28.8129 36.5357C28.2335 36.1964 27.7925 35.6635 27.5677 35.0309L27.2857 34.2338L33.1019 33.2351V33.237Z" fill="var(--fill-0, #497FFF)"/>
</g>
</svg>
