<svg preserveAspectRatio="none" width="100%" height="100%" overflow="visible" style="display: block;" viewBox="0 0 24 24" fill="none" xmlns="http://www.w3.org/2000/svg">
<g id="mynaui:star-solid">
<path id="Vector" d="M13.51 3.139C12.858 1.954 11.142 1.954 10.489 3.139C9.63028 4.69939 8.92241 6.33814 8.375 8.033C8.34918 8.09931 8.30377 8.15617 8.24481 8.19602C8.18585 8.23586 8.11615 8.25678 8.045 8.256C6.57797 8.29413 5.11571 8.43986 3.67 8.692C2.333 8.925 1.744 10.529 2.76 11.522C2.888 11.6473 3.01733 11.772 3.148 11.896C4.12681 12.8228 5.16321 13.6869 6.251 14.483C6.30042 14.5158 6.33786 14.5638 6.35769 14.6197C6.37753 14.6756 6.37869 14.7364 6.361 14.793C5.81184 16.4407 5.41943 18.1366 5.189 19.858C4.999 21.282 6.507 22.156 7.684 21.552C9.11288 20.8197 10.4791 19.9712 11.769 19.015C11.8366 18.9672 11.9173 18.9416 12 18.9416C12.0827 18.9416 12.1634 18.9672 12.231 19.015C13.5201 19.9723 14.8864 20.8209 16.316 21.552C17.493 22.156 19.001 21.282 18.811 19.858C18.5809 18.1366 18.1888 16.4407 17.64 14.793C17.6223 14.7364 17.6235 14.6756 17.6433 14.6197C17.6631 14.5638 17.7006 14.5158 17.75 14.483C18.9825 13.5809 20.1488 12.5917 21.24 11.523C22.256 10.529 21.667 8.925 20.33 8.692C18.884 8.43981 17.4214 8.29408 15.954 8.256C15.883 8.25658 15.8135 8.23556 15.7548 8.19573C15.696 8.1559 15.6508 8.09915 15.625 8.033C15.0793 6.33749 14.3704 4.69857 13.51 3.139Z" fill="var(--fill-0, #404446)"/>
</g>
</svg>
